<?xml version="1.0" encoding="UTF-8" standalone="no"?>
<!-- Created with Inkscape (http://www.inkscape.org/) -->

<svg
   width="212mm"
   height="212mm"
   viewBox="0 0 212 212"
   version="1.1"
   id="svg1"
   xml:space="preserve"
   inkscape:version="1.4.2 (f4327f4, 2025-05-13)"
   sodipodi:docname="app-icon.svg"
   xmlns:inkscape="http://www.inkscape.org/namespaces/inkscape"
   xmlns:sodipodi="http://sodipodi.sourceforge.net/DTD/sodipodi-0.dtd"
   xmlns="http://www.w3.org/2000/svg"
   xmlns:svg="http://www.w3.org/2000/svg"><sodipodi:namedview
     id="namedview1"
     pagecolor="#505050"
     bordercolor="#ffffff"
     borderopacity="1"
     inkscape:showpageshadow="0"
     inkscape:pageopacity="0"
     inkscape:pagecheckerboard="1"
     inkscape:deskcolor="#505050"
     inkscape:document-units="mm"
     inkscape:zoom="0.71891835"
     inkscape:cx="29.210549"
     inkscape:cy="372.08676"
     inkscape:window-width="2560"
     inkscape:window-height="1009"
     inkscape:window-x="-8"
     inkscape:window-y="317"
     inkscape:window-maximized="1"
     inkscape:current-layer="svg1" /><defs
     id="defs1"><inkscape:path-effect
       effect="fillet_chamfer"
       id="path-effect6"
       is_visible="true"
       lpeversion="1"
       nodesatellites_param="F,0,0,1,0,0,0,1 @ F,0,0,1,0,0,0,1 @ F,0,0,1,0,0,0,1 @ F,0,0,1,0,0,0,1 @ F,0,0,1,0,0,0,1 @ F,0,0,1,0,0,0,1 @ F,0,0,1,0,0,0,1 @ F,0,0,1,0,0,0,1"
       radius="0"
       unit="px"
       method="auto"
       mode="F"
       chamfer_steps="1"
       flexible="false"
       use_knot_distance="true"
       apply_no_radius="true"
       apply_with_radius="true"
       only_selected="false"
       hide_knots="false" /></defs><g
     id="g10"
     inkscape:label="Icon"
     transform="matrix(0.87311629,0,0,0.87309948,16.162938,-36.168285)"
     style="stroke-width:1.14533"><rect
       style="display:inline;opacity:1;mix-blend-mode:normal;fill:#846a5b;fill-opacity:1;stroke:#000000;stroke-width:11.4533;stroke-linecap:round;stroke-linejoin:round;stroke-dasharray:none;stroke-opacity:1;paint-order:stroke fill markers"
       id="rect10"
       width="210"
       height="208.81035"
       x="-2.1075642"
       y="58.42654"
       rx="53.460781"
       ry="53.461811"
       inkscape:label="base" /><g
       id="g5"
       transform="translate(-240.10683,54.185321)"
       style="display:inline;opacity:1;mix-blend-mode:normal;stroke-width:1.14533"
       inkscape:label="Vinyl"><circle
         style="display:inline;opacity:1;mix-blend-mode:normal;fill:none;fill-opacity:1;stroke:#000000;stroke-width:5.72667;stroke-linecap:round;stroke-linejoin:bevel;stroke-dasharray:none;stroke-opacity:1;paint-order:stroke fill markers"
         id="circle8"
         cx="342.99927"
         cy="108.64639"
         r="95.785439"
         inkscape:label="Vinyl Outline" /><circle
         style="fill:#252525;fill-opacity:1;stroke:#e5e5e5;stroke-width:0;stroke-linecap:round;stroke-linejoin:bevel;paint-order:stroke fill markers"
         id="circle4"
         cx="342.99927"
         cy="108.64639"
         r="95.785439"
         inkscape:label="Tracks" /><circle
         style="fill:#000000;fill-opacity:1;stroke:#e5e5e5;stroke-width:0;stroke-linecap:round;stroke-linejoin:bevel;paint-order:stroke fill markers"
         id="circle5"
         cx="342.99927"
         cy="108.64639"
         r="47.824978"
         inkscape:label="Dead Zone" /><circle
         style="fill:#cccccc;fill-opacity:1;stroke:#e5e5e5;stroke-width:0;stroke-linecap:round;stroke-linejoin:bevel;paint-order:stroke fill markers"
         id="circle3"
         cx="342.99927"
         cy="108.64639"
         r="36.232044"
         inkscape:label="Center label" /><circle
         style="fill:#282828;fill-opacity:1;stroke:#e5e5e5;stroke-width:0;stroke-linecap:round;stroke-linejoin:bevel;paint-order:stroke fill markers"
         id="path2"
         cx="342.99927"
         cy="108.64639"
         r="3.2875814"
         inkscape:label="Spindle hole" /></g><g
       id="g7"
       inkscape:label="reader"
       transform="translate(64.50582,15.435802)"
       style="stroke-width:1.14533"><path
         id="path8"
         style="opacity:1;fill:#ed1a1a;fill-opacity:0;stroke:#000000;stroke-width:11.4533;stroke-linecap:round;stroke-linejoin:round;stroke-dasharray:none;stroke-opacity:1;paint-order:stroke fill markers"
         inkscape:label="reader outline"
         d="m 119.89219,80.69726 c -2.57395,-0.02828 -3.69931,1.361694 -4.00234,3.818372 0,0 -1.49592,10.866982 -1.93854,14.34627 -0.52112,4.096338 -1.07012,8.189088 -1.61024,12.282968 -0.48763,3.69604 -0.93574,7.39792 -1.47226,11.08718 -0.52282,3.59505 -1.14907,7.17421 -1.70222,10.76472 -0.33054,2.14555 -0.63761,4.29453 -0.96584,6.44043 -0.43646,2.8535 -0.67199,5.7469 -1.33428,8.55659 -0.57969,2.45927 -1.29743,4.90362 -2.30012,7.22281 -0.8009,1.85245 -1.83428,3.60444 -2.94401,5.29012 -1.16035,1.76256 -2.467287,3.43316 -3.864361,5.01468 -1.399875,1.58469 -2.853473,3.14598 -4.508252,4.46226 -1.223649,0.97334 -2.559699,1.82113 -3.965132,2.50631 -1.122223,0.5471 -3.032253,1.19704 -4.338237,1.61695 -0.482917,0.0566 -0.958809,0.20146 -1.401465,0.43615 -0.297146,0.15754 -0.579408,0.35566 -0.839225,0.59428 L 58.83219,197.06314 c -1.632108,1.49896 -1.739255,4.01975 -0.240295,5.65185 l 7.293611,7.94216 c 1.498959,1.6321 4.019743,1.73925 5.651852,0.24029 l 23.873995,-21.92631 c 0.551721,-0.50671 0.926474,-1.13088 1.126546,-1.79731 l 0.0021,0.002 c 0,0 0.0054,-0.0176 0.01499,-0.0501 0.101622,-0.34496 0.710505,-2.392 1.154451,-3.41323 0.50304,-1.15717 1.12325,-2.26512 1.79679,-3.3321 0.83171,-1.31755 1.80686,-2.53985 2.76004,-3.77238 2.31347,-2.99147 5.00672,-5.68949 7.17682,-8.78654 2.0796,-2.96789 4.03795,-6.05295 5.56607,-9.33897 1.2658,-2.72193 2.17563,-5.60888 2.94453,-8.51059 1.36663,-5.15747 2.04502,-10.47371 2.944,-15.73289 1.03012,-6.0264 1.86495,-12.08465 2.80655,-18.12551 0.77695,-4.98454 1.71651,-9.94626 2.34611,-14.95154 0.52674,-4.187548 1.84656,-16.508412 1.84656,-16.508412 0.18867,-1.988334 -1.2394,-3.882023 -3.81837,-3.910356 z"
         sodipodi:nodetypes="scssssssssssscsscccssccsssssssssscss" /><path
         style="opacity:1;fill:#cccccc;fill-opacity:1;stroke:#e5e5e5;stroke-width:0;stroke-linecap:round;stroke-linejoin:round;paint-order:stroke fill markers"
         d="m 83.545115,174.5432 c 0,0 3.912942,-1.163 5.739323,-2.0534 1.405433,-0.68518 2.741448,-1.53273 3.965097,-2.50607 1.654779,-1.31628 3.108487,-2.87767 4.508362,-4.46236 1.397074,-1.58152 2.703963,-3.25184 3.864313,-5.0144 1.10973,-1.68568 2.14334,-3.43798 2.94424,-5.29043 1.00269,-2.31919 1.72049,-4.76331 2.30018,-7.22258 0.66229,-2.80969 0.89765,-5.70319 1.33411,-8.55669 0.32823,-2.1459 0.63554,-4.29497 0.96608,-6.44052 0.55315,-3.59051 1.17932,-7.16982 1.70214,-10.76487 0.53652,-3.68926 0.98449,-7.39086 1.47212,-11.0869 0.54012,-4.09388 1.08901,-8.18665 1.61013,-12.282992 0.44262,-3.479288 1.93869,-14.346389 1.93869,-14.346389 0.30303,-2.456678 1.42837,-3.846591 4.00232,-3.818308 l 4.18634,0.046 c 2.57897,0.02834 4.00698,1.921983 3.81831,3.910317 0,0 -1.31995,12.321014 -1.84669,16.508562 -0.6296,5.00528 -1.56924,9.96667 -2.34619,14.95121 -0.9416,6.04086 -1.7761,12.09907 -2.80622,18.12547 -0.89898,5.25918 -1.57761,10.5758 -2.94424,15.73327 -0.7689,2.90171 -1.67844,5.78875 -2.94424,8.51068 -1.52812,3.28602 -3.48685,6.37087 -5.56645,9.33876 -2.1701,3.09705 -4.86311,5.79524 -7.17658,8.78671 -0.95318,1.23253 -1.92851,2.45476 -2.760221,3.77231 -0.67354,1.06698 -1.29341,2.17474 -1.79645,3.33191 -0.485771,1.11745 -1.169466,3.46328 -1.169466,3.46328 z"
         id="path7"
         inkscape:label="reader arm"
         sodipodi:nodetypes="csssssssssssssssssssssssscc" /><rect
         style="opacity:1;fill:#4e4e4e;fill-opacity:1;stroke:#e5e5e5;stroke-width:0;stroke-linecap:round;stroke-linejoin:round;paint-order:stroke fill markers"
         id="rect6"
         width="40.414658"
         height="18.783121"
         x="-93.968269"
         y="184.93486"
         transform="rotate(-42.564958)"
         inkscape:label="reader head"
         sodipodi:type="rect"
         ry="4.5813389"
         rx="4.5813317" /></g></g></svg>
